<svg width="0" height="0" class="hidden">
  <symbol xmlns="http://www.w3.org/2000/svg" fill="currentColor" viewBox="0 0 16 16" id="check">
    <path d="M12.736 3.97a.733.733 0 0 1 1.047 0c.286.289.29.756.01 1.05L7.88 12.01a.733.733 0 0 1-1.065.02L3.217 8.384a.757.757 0 0 1 0-1.06.733.733 0 0 1 1.047 0l3.052 3.093 5.4-6.425a.247.247 0 0 1 .02-.022Z"></path>
  </symbol>

  <symbol xmlns="http://www.w3.org/2000/svg" fill="currentColor" viewBox="0 0 16 16" id="key">
    <path d="M0 8a4 4 0 0 1 7.465-2H14a.5.5 0 0 1 .354.146l1.5 1.5a.5.5 0 0 1 0 .708l-1.5 1.5a.5.5 0 0 1-.708 0L13 9.207l-.646.647a.5.5 0 0 1-.708 0L11 9.207l-.646.647a.5.5 0 0 1-.708 0L9 9.207l-.646.647A.5.5 0 0 1 8 10h-.535A4 4 0 0 1 0 8zm4-3a3 3 0 1 0 2.712 4.285A.5.5 0 0 1 7.163 9h.63l.853-.854a.5.5 0 0 1 .708 0l.646.647.646-.647a.5.5 0 0 1 .708 0l.646.647.646-.647a.5.5 0 0 1 .708 0l.646.647.793-.793-1-1h-6.63a.5.5 0 0 1-.451-.285A3 3 0 0 0 4 5z"></path>
    <path d="M4 8a1 1 0 1 1-2 0 1 1 0 0 1 2 0z"></path>
  </symbol>

  <symbol xmlns="http://www.w3.org/2000/svg" fill="currentColor" viewBox="0 0 16 16" id="info">
    <path d="M14 1a1 1 0 0 1 1 1v12a1 1 0 0 1-1 1H2a1 1 0 0 1-1-1V2a1 1 0 0 1 1-1h12zM2 0a2 2 0 0 0-2 2v12a2 2 0 0 0 2 2h12a2 2 0 0 0 2-2V2a2 2 0 0 0-2-2H2z"></path>
    <path d="m8.93 6.588-2.29.287-.082.38.45.083c.294.07.352.176.288.469l-.738 3.468c-.194.897.105 1.319.808 1.319.545 0 1.178-.252 1.465-.598l.088-.416c-.2.176-.492.246-.686.246-.275 0-.375-.193-.304-.533L8.93 6.588zM9 4.5a1 1 0 1 1-2 0 1 1 0 0 1 2 0z"></path>
  </symbol>

  <symbol xmlns="http://www.w3.org/2000/svg" fill="currentColor" viewBox="0 0 16 16" id="plus">
    <path d="M8 4a.5.5 0 0 1 .5.5v3h3a.5.5 0 0 1 0 1h-3v3a.5.5 0 0 1-1 0v-3h-3a.5.5 0 0 1 0-1h3v-3A.5.5 0 0 1 8 4z"></path>
  </symbol>

  <symbol id="arrow-right" xmlns="http://www.w3.org/2000/svg" fill="currentColor" viewBox="0 0 16 16">
    <path d="m12.14 8.753-5.482 4.796c-.646.566-1.658.106-1.658-.753V3.204a1 1 0 0 1 1.659-.753l5.48 4.796a1 1 0 0 1 0 1.506z"></path>
  </symbol>

  <symbol id="arrow-left" xmlns="http://www.w3.org/2000/svg" fill="currentColor" viewBox="0 0 16 16">
    <path d="m3.86 8.753 5.482 4.796c.646.566 1.658.106 1.658-.753V3.204a1 1 0 0 0-1.659-.753l-5.48 4.796a1 1 0 0 0 0 1.506z"></path>
  </symbol>

  <symbol id="eye" xmlns="http://www.w3.org/2000/svg" fill="currentColor" viewBox="0 0 16 16">
    <path d="M16 8s-3-5.5-8-5.5S0 8 0 8s3 5.5 8 5.5S16 8 16 8zM1.173 8a13.133 13.133 0 0 1 1.66-2.043C4.12 4.668 5.88 3.5 8 3.5c2.12 0 3.879 1.168 5.168 2.457A13.133 13.133 0 0 1 14.828 8c-.058.087-.122.183-.195.288-.335.48-.83 1.12-1.465 1.755C11.879 11.332 10.119 12.5 8 12.5c-2.12 0-3.879-1.168-5.168-2.457A13.134 13.134 0 0 1 1.172 8z"></path>
    <path d="M8 5.5a2.5 2.5 0 1 0 0 5 2.5 2.5 0 0 0 0-5zM4.5 8a3.5 3.5 0 1 1 7 0 3.5 3.5 0 0 1-7 0z"></path>
  </symbol>

   <symbol id="arrow-up" fill="currentColor" version="1.1" xml:space="preserve" xmlns="http://www.w3.org/2000/svg" xmlns:xlink="http://www.w3.org/1999/xlink" viewBox="0 0 512 512">
    <polygon points="256.5,64.5 64.5,256.5 176.5,256.5 176.5,448.5 336.5,448.5 336.5,256.5 448.5,256.5 "></polygon>
  </symbol>

  <symbol id="bag" xmlns="http://www.w3.org/2000/svg" fill="currentColor" viewBox="0 0 16 16">
    <path d="M8 1a2.5 2.5 0 0 1 2.5 2.5V4h-5v-.5A2.5 2.5 0 0 1 8 1zm3.5 3v-.5a3.5 3.5 0 1 0-7 0V4H1v10a2 2 0 0 0 2 2h10a2 2 0 0 0 2-2V4h-3.5zM2 5h12v9a1 1 0 0 1-1 1H3a1 1 0 0 1-1-1V5z"></path>
  </symbol>

  <symbol id="graph" xmlns="http://www.w3.org/2000/svg" fill="currentColor" viewBox="0 0 16 16">
    <path fill-rule="evenodd" d="M0 0h1v15h15v1H0V0Zm14.817 3.113a.5.5 0 0 1 .07.704l-4.5 5.5a.5.5 0 0 1-.74.037L7.06 6.767l-3.656 5.027a.5.5 0 0 1-.808-.588l4-5.5a.5.5 0 0 1 .758-.06l2.609 2.61 4.15-5.073a.5.5 0 0 1 .704-.07Z"></path>
  </symbol>

  <symbol id="clock" xmlns="http://www.w3.org/2000/svg" fill="currentColor" viewBox="0 0 16 16" >
    <path d="M8 3.5a.5.5 0 0 0-1 0V9a.5.5 0 0 0 .252.434l3.5 2a.5.5 0 0 0 .496-.868L8 8.71V3.5z"></path>
    <path d="M8 16A8 8 0 1 0 8 0a8 8 0 0 0 0 16zm7-8A7 7 0 1 1 1 8a7 7 0 0 1 14 0z"></path>
  </symbol>

  <symbol id="archive" xmlns="http://www.w3.org/2000/svg" fill="currentColor" viewBox="0 0 16 16" >
    <path d="M0 2a1 1 0 0 1 1-1h14a1 1 0 0 1 1 1v2a1 1 0 0 1-1 1v7.5a2.5 2.5 0 0 1-2.5 2.5h-9A2.5 2.5 0 0 1 1 12.5V5a1 1 0 0 1-1-1V2zm2 3v7.5A1.5 1.5 0 0 0 3.5 14h9a1.5 1.5 0 0 0 1.5-1.5V5H2zm13-3H1v2h14V2zM5 7.5a.5.5 0 0 1 .5-.5h5a.5.5 0 0 1 0 1h-5a.5.5 0 0 1-.5-.5z"></path>
  </symbol>

  <symbol id="pause" xmlns="http://www.w3.org/2000/svg" fill="currentColor" viewBox="0 0 16 16">
    <path d="M5.5 3.5A1.5 1.5 0 0 1 7 5v6a1.5 1.5 0 0 1-3 0V5a1.5 1.5 0 0 1 1.5-1.5zm5 0A1.5 1.5 0 0 1 12 5v6a1.5 1.5 0 0 1-3 0V5a1.5 1.5 0 0 1 1.5-1.5z"></path>
  </symbol>

  <symbol id="user" xmlns="http://www.w3.org/2000/svg" fill="currentColor" viewBox="0 0 16 16">
    <path d="M3 14s-1 0-1-1 1-4 6-4 6 3 6 4-1 1-1 1H3Zm5-6a3 3 0 1 0 0-6 3 3 0 0 0 0 6Z"></path>
  </symbol>

  <symbol id="robot" xmlns="http://www.w3.org/2000/svg" fill="currentColor" viewBox="0 0 16 16">
    <path d="M6 12.5a.5.5 0 0 1 .5-.5h3a.5.5 0 0 1 0 1h-3a.5.5 0 0 1-.5-.5ZM3 8.062C3 6.76 4.235 5.765 5.53 5.886a26.58 26.58 0 0 0 4.94 0C11.765 5.765 13 6.76 13 8.062v1.157a.933.933 0 0 1-.765.935c-.845.147-2.34.346-4.235.346-1.895 0-3.39-.2-4.235-.346A.933.933 0 0 1 3 9.219V8.062Zm4.542-.827a.25.25 0 0 0-.217.068l-.92.9a24.767 24.767 0 0 1-1.871-.183.25.25 0 0 0-.068.495c.55.076 1.232.149 2.02.193a.25.25 0 0 0 .189-.071l.754-.736.847 1.71a.25.25 0 0 0 .404.062l.932-.97a25.286 25.286 0 0 0 1.922-.188.25.25 0 0 0-.068-.495c-.538.074-1.207.145-1.98.189a.25.25 0 0 0-.166.076l-.754.785-.842-1.7a.25.25 0 0 0-.182-.135Z"></path>
    <path d="M8.5 1.866a1 1 0 1 0-1 0V3h-2A4.5 4.5 0 0 0 1 7.5V8a1 1 0 0 0-1 1v2a1 1 0 0 0 1 1v1a2 2 0 0 0 2 2h10a2 2 0 0 0 2-2v-1a1 1 0 0 0 1-1V9a1 1 0 0 0-1-1v-.5A4.5 4.5 0 0 0 10.5 3h-2V1.866ZM14 7.5V13a1 1 0 0 1-1 1H3a1 1 0 0 1-1-1V7.5A3.5 3.5 0 0 1 5.5 4h5A3.5 3.5 0 0 1 14 7.5Z"></path>
  </symbol>

  <symbol id="multilang" xmlns="http://www.w3.org/2000/svg" fill="currentColor" viewBox="0 0 16 16">
    <path d="M4.545 6.714 4.11 8H3l1.862-5h1.284L8 8H6.833l-.435-1.286H4.545zm1.634-.736L5.5 3.956h-.049l-.679 2.022H6.18z"></path>
    <path d="M0 2a2 2 0 0 1 2-2h7a2 2 0 0 1 2 2v3h3a2 2 0 0 1 2 2v7a2 2 0 0 1-2 2H7a2 2 0 0 1-2-2v-3H2a2 2 0 0 1-2-2V2zm2-1a1 1 0 0 0-1 1v7a1 1 0 0 0 1 1h7a1 1 0 0 0 1-1V2a1 1 0 0 0-1-1H2zm7.138 9.995c.193.301.402.583.63.846-.748.575-1.673 1.001-2.768 1.292.178.217.451.635.555.867 1.125-.359 2.08-.844 2.886-1.494.777.665 1.739 1.165 2.93 1.472.133-.254.414-.673.629-.89-1.125-.253-2.057-.694-2.82-1.284.681-.747 1.222-1.651 1.621-2.757H14V8h-3v1.047h.765c-.318.844-.74 1.546-1.272 2.13a6.066 6.066 0 0 1-.415-.492 1.988 1.988 0 0 1-.94.31z"></path>
  </symbol>

  <symbol id="moon" xmlns="http://www.w3.org/2000/svg" fill="currentColor" viewBox="0 0 16 16">
    <path d="M6 .278a.768.768 0 0 1 .08.858 7.208 7.208 0 0 0-.878 3.46c0 4.021 3.278 7.277 7.318 7.277.527 0 1.04-.055 1.533-.16a.787.787 0 0 1 .81.316.733.733 0 0 1-.031.893A8.349 8.349 0 0 1 8.344 16C3.734 16 0 12.286 0 7.71 0 4.266 2.114 1.312 5.124.06A.752.752 0 0 1 6 .278z"></path>
  </symbol>

  <symbol id="sun" xmlns="http://www.w3.org/2000/svg" fill="currentColor" viewBox="0 0 16 16">
    <path d="M8 12a4 4 0 1 0 0-8 4 4 0 0 0 0 8zM8 0a.5.5 0 0 1 .5.5v2a.5.5 0 0 1-1 0v-2A.5.5 0 0 1 8 0zm0 13a.5.5 0 0 1 .5.5v2a.5.5 0 0 1-1 0v-2A.5.5 0 0 1 8 13zm8-5a.5.5 0 0 1-.5.5h-2a.5.5 0 0 1 0-1h2a.5.5 0 0 1 .5.5zM3 8a.5.5 0 0 1-.5.5h-2a.5.5 0 0 1 0-1h2A.5.5 0 0 1 3 8zm10.657-5.657a.5.5 0 0 1 0 .707l-1.414 1.415a.5.5 0 1 1-.707-.708l1.414-1.414a.5.5 0 0 1 .707 0zm-9.193 9.193a.5.5 0 0 1 0 .707L3.05 13.657a.5.5 0 0 1-.707-.707l1.414-1.414a.5.5 0 0 1 .707 0zm9.193 2.121a.5.5 0 0 1-.707 0l-1.414-1.414a.5.5 0 0 1 .707-.707l1.414 1.414a.5.5 0 0 1 0 .707zM4.464 4.465a.5.5 0 0 1-.707 0L2.343 3.05a.5.5 0 1 1 .707-.707l1.414 1.414a.5.5 0 0 1 0 .708z"></path>
  </symbol>

  <symbol id="increase" xmlns="http://www.w3.org/2000/svg" fill="currentColor" viewBox="0 0 16 16">
    <path d="M3.5 3.5a.5.5 0 0 0-1 0v8.793l-1.146-1.147a.5.5 0 0 0-.708.708l2 1.999.007.007a.497.497 0 0 0 .7-.006l2-2a.5.5 0 0 0-.707-.708L3.5 12.293V3.5zm4 .5a.5.5 0 0 1 0-1h1a.5.5 0 0 1 0 1h-1zm0 3a.5.5 0 0 1 0-1h3a.5.5 0 0 1 0 1h-3zm0 3a.5.5 0 0 1 0-1h5a.5.5 0 0 1 0 1h-5zM7 12.5a.5.5 0 0 0 .5.5h7a.5.5 0 0 0 0-1h-7a.5.5 0 0 0-.5.5z"></path>
  </symbol>

  <symbol id="decrease" xmlns="http://www.w3.org/2000/svg" fill="currentColor" viewBox="0 0 16 16">
    <path d="M3.5 12.5a.5.5 0 0 1-1 0V3.707L1.354 4.854a.5.5 0 1 1-.708-.708l2-1.999.007-.007a.498.498 0 0 1 .7.006l2 2a.5.5 0 1 1-.707.708L3.5 3.707V12.5zm3.5-9a.5.5 0 0 1 .5-.5h7a.5.5 0 0 1 0 1h-7a.5.5 0 0 1-.5-.5zM7.5 6a.5.5 0 0 0 0 1h5a.5.5 0 0 0 0-1h-5zm0 3a.5.5 0 0 0 0 1h3a.5.5 0 0 0 0-1h-3zm0 3a.5.5 0 0 0 0 1h1a.5.5 0 0 0 0-1h-1z"></path>
  </symbol>

  <symbol id="plus" xmlns="http://www.w3.org/2000/svg" fill="currentColor" viewBox="0 0 16 16" >
    <path d="M8 4a.5.5 0 0 1 .5.5v3h3a.5.5 0 0 1 0 1h-3v3a.5.5 0 0 1-1 0v-3h-3a.5.5 0 0 1 0-1h3v-3A.5.5 0 0 1 8 4z"></path>
  </symbol>

  <symbol id="search" xmlns="http://www.w3.org/2000/svg" fill="currentColor" viewBox="0 0 16 16" >
    <path d="M11.742 10.344a6.5 6.5 0 1 0-1.397 1.398h-.001c.03.04.062.078.098.115l3.85 3.85a1 1 0 0 0 1.415-1.414l-3.85-3.85a1.007 1.007 0 0 0-.115-.1zM12 6.5a5.5 5.5 0 1 1-11 0 5.5 5.5 0 0 1 11 0z"></path>
  </symbol>

  <symbol id="google" xmlns="http://www.w3.org/2000/svg" fill="currentColor" viewBox="0 0 16 16" >
    <path d="M15.545 6.558a9.42 9.42 0 0 1 .139 1.626c0 2.434-.87 4.492-2.384 5.885h.002C11.978 15.292 10.158 16 8 16A8 8 0 1 1 8 0a7.689 7.689 0 0 1 5.352 2.082l-2.284 2.284A4.347 4.347 0 0 0 8 3.166c-2.087 0-3.86 1.408-4.492 3.304a4.792 4.792 0 0 0 0 3.063h.003c.635 1.893 2.405 3.301 4.492 3.301 1.078 0 2.004-.276 2.722-.764h-.003a3.702 3.702 0 0 0 1.599-2.431H8v-3.08h7.545z"></path>
  </symbol>

  <symbol id="exit" xmlns="http://www.w3.org/2000/svg" fill="currentColor" viewBox="0 0 16 16">
    <path fill-rule="evenodd" d="M10 12.5a.5.5 0 0 1-.5.5h-8a.5.5 0 0 1-.5-.5v-9a.5.5 0 0 1 .5-.5h8a.5.5 0 0 1 .5.5v2a.5.5 0 0 0 1 0v-2A1.5 1.5 0 0 0 9.5 2h-8A1.5 1.5 0 0 0 0 3.5v9A1.5 1.5 0 0 0 1.5 14h8a1.5 1.5 0 0 0 1.5-1.5v-2a.5.5 0 0 0-1 0v2z"></path>
    <path fill-rule="evenodd" d="M15.854 8.354a.5.5 0 0 0 0-.708l-3-3a.5.5 0 0 0-.708.708L14.293 7.5H5.5a.5.5 0 0 0 0 1h8.793l-2.147 2.146a.5.5 0 0 0 .708.708l3-3z"></path>
  </symbol>
</svg>
